<?xml version="1.0" encoding="UTF-8" standalone="no"?>
<!-- Created with Inkscape (http://www.inkscape.org/) -->

<svg
   xmlns:dc="http://purl.org/dc/elements/1.1/"
   xmlns:cc="http://creativecommons.org/ns#"
   xmlns:rdf="http://www.w3.org/1999/02/22-rdf-syntax-ns#"
   xmlns:svg="http://www.w3.org/2000/svg"
   xmlns="http://www.w3.org/2000/svg"
   version="1.1"
   viewBox="0 0 1000 500"
   preserveAspectRatio="xMidYMid meet"
   width="1000"
   height="500"
   id="svg2">
  <defs
     id="defs4" />
  <metadata
     id="metadata7">
    <rdf:RDF>
      <cc:Work
         rdf:about="">
        <dc:format>image/svg+xml</dc:format>
        <dc:type
           rdf:resource="http://purl.org/dc/dcmitype/StillImage" />
        <dc:title></dc:title>
      </cc:Work>
    </rdf:RDF>
  </metadata>
  <g
     transform="translate(0,-552.36218)"
     id="layer1">
    <g
       transform="matrix(1.8423064,0,0,1.8423064,629.82612,1156.3371)"
       id="g7770">
      <g
         transform="matrix(1.25,0,0,-1.25,-144.27109,-207.99557)"
         id="g4287">
        <path
           d="M 0,0 C 22.091,0 40.001,17.908 40.001,40 40.001,62.089 22.091,79.999 0,79.999 -22.091,79.999 -39.999,62.089 -39.999,40 -39.999,17.908 -22.091,0 0,0"
           id="path4289"
           style="fill:#336699;fill-opacity:1;fill-rule:nonzero;stroke:none" />
      </g>
      <g
         transform="matrix(1.25,0,0,-1.25,-156.33284,-266.46106)"
         id="g4291">
        <path
           d="m 0,0 4.135,0 0,4.019 c 0,1.772 0.045,4.505 1.332,6.198 1.356,1.792 3.218,3.011 6.42,3.011 5.217,0 7.413,-0.744 7.413,-0.744 L 18.267,6.357 c 0,0 -1.724,0.499 -3.331,0.499 -1.609,0 -3.049,-0.577 -3.049,-2.185 l 0,-4.671 6.595,0 -0.461,-5.984 -6.134,0 0,-20.788 -7.752,0 0,20.788 L 0,-5.984 0,0 z"
           id="path4293"
           style="fill:#ffffff;fill-opacity:1;fill-rule:nonzero;stroke:none" />
      </g>
    </g>
    <g
       transform="matrix(1.8423064,0,0,1.8423064,718.36018,1158.9713)"
       id="g7764">
      <g
         transform="matrix(1.25,0,0,-1.25,-339.92438,-209.42539)"
         id="g4295">
        <path
           d="M 0,0 C 22.092,0 39.998,17.908 39.998,40 39.998,62.089 22.092,79.999 0,79.999 -22.09,79.999 -40,62.089 -40,40 -40,17.908 -22.09,0 0,0"
           id="path4297"
           style="fill:#00aced;fill-opacity:1;fill-rule:nonzero;stroke:none" />
      </g>
      <g
         transform="matrix(1.25,0,0,-1.25,-314.88275,-272.52288)"
         id="g4299">
        <path
           d="m 0,0 c -1.475,-0.653 -3.06,-1.095 -4.722,-1.294 1.7,1.018 3.004,2.627 3.615,4.546 C -2.696,2.311 -4.453,1.627 -6.33,1.26 c -1.495,1.597 -3.633,2.595 -5.999,2.595 -4.538,0 -8.218,-3.681 -8.218,-8.22 0,-0.645 0.069,-1.271 0.212,-1.871 -6.831,0.343 -12.887,3.612 -16.945,8.589 -0.707,-1.218 -1.112,-2.629 -1.112,-4.136 0,-2.849 1.452,-5.366 3.657,-6.842 -1.346,0.041 -2.615,0.415 -3.726,1.026 l 0,-0.101 c 0,-3.985 2.834,-7.306 6.597,-8.06 -0.69,-0.193 -1.415,-0.289 -2.166,-0.289 -0.531,0 -1.045,0.049 -1.546,0.146 1.045,-3.265 4.079,-5.643 7.678,-5.706 -2.814,-2.206 -6.36,-3.52 -10.209,-3.52 -0.664,0 -1.319,0.037 -1.961,0.113 3.637,-2.33 7.96,-3.692 12.599,-3.692 15.124,0 23.39,12.524 23.39,23.389 0,0.357 -0.007,0.713 -0.023,1.063 C -2.494,-3.096 -1.098,-1.647 0,0"
           id="path4301"
           style="fill:#ffffff;fill-opacity:1;fill-rule:nonzero;stroke:none" />
      </g>
    </g>
    <g
       transform="matrix(1.8423064,0,0,1.8423064,1178.9367,1012.9027)"
       id="g7806">
      <g
         transform="matrix(1.25,0,0,-1.25,-147.12399,-130.13843)"
         id="g4303">
        <path
           d="M 0,0 C 22.09,0 39.998,17.91 39.998,40.001 39.998,62.091 22.09,80 0,80 -22.091,80 -40.002,62.091 -40.002,40.001 -40.002,17.91 -22.091,0 0,0"
           id="path4305"
           style="fill:#cc3333;fill-opacity:1;fill-rule:nonzero;stroke:none" />
      </g>
      <g
         transform="matrix(1.25,0,0,-1.25,-142.18924,-171.57155)"
         id="g4307">
        <path
           d="m 0,0 c -0.121,0.162 -0.322,0.242 -0.565,0.242 -0.121,0 -0.262,-0.02 -0.382,-0.08 C -1.069,0.101 -1.209,0 -1.33,-0.122 l 0,-5.684 c 0.141,-0.141 0.302,-0.263 0.444,-0.323 0.141,-0.06 0.281,-0.102 0.424,-0.102 0.242,0 0.401,0.061 0.501,0.203 0.101,0.12 0.163,0.323 0.163,0.625 l 0,4.716 C 0.202,-0.382 0.14,-0.162 0,0 m 0,0 c -0.121,0.162 -0.322,0.242 -0.565,0.242 -0.121,0 -0.262,-0.02 -0.382,-0.08 C -1.069,0.101 -1.209,0 -1.33,-0.122 l 0,-5.684 c 0.141,-0.141 0.302,-0.263 0.444,-0.323 0.141,-0.06 0.281,-0.102 0.424,-0.102 0.242,0 0.401,0.061 0.501,0.203 0.101,0.12 0.163,0.323 0.163,0.625 l 0,4.716 C 0.202,-0.382 0.14,-0.162 0,0 m -0.565,0.242 c -0.121,0 -0.262,-0.02 -0.382,-0.08 C -1.069,0.101 -1.209,0 -1.33,-0.122 l 0,-5.684 c 0.141,-0.141 0.302,-0.263 0.444,-0.323 0.141,-0.06 0.281,-0.102 0.424,-0.102 0.242,0 0.401,0.061 0.501,0.203 0.101,0.12 0.163,0.323 0.163,0.625 l 0,4.716 C 0.202,-0.382 0.14,-0.162 0,0 -0.121,0.162 -0.322,0.242 -0.565,0.242 m 8.974,-3.448 -3.491,0 0,-1.713 c 0,-0.484 0.041,-0.808 0.163,-0.989 0.12,-0.201 0.343,-0.281 0.625,-0.281 0.302,0 0.504,0.08 0.625,0.242 0.121,0.141 0.18,0.504 0.18,1.028 l 0,0.423 1.898,0 0,-0.462 c 0,-0.95 -0.242,-1.654 -0.708,-2.118 -0.442,-0.484 -1.13,-0.706 -2.034,-0.706 -0.829,0 -1.473,0.242 -1.938,0.746 -0.462,0.503 -0.704,1.19 -0.704,2.078 l 0,4.091 c 0,0.787 0.262,1.432 0.787,1.935 C 4.314,1.554 4.98,1.814 5.806,1.814 6.634,1.814 7.28,1.572 7.721,1.108 8.167,0.645 8.409,0 8.409,-0.867 l 0,-2.339 z m -6.332,-2.44 c 0,-0.645 -0.142,-1.148 -0.424,-1.491 -0.281,-0.342 -0.705,-0.524 -1.247,-0.524 -0.367,0 -0.669,0.061 -0.951,0.2 -0.282,0.144 -0.542,0.343 -0.785,0.626 l 0,-0.705 -1.835,0 0,12.357 1.835,0 0,-3.969 c 0.243,0.26 0.503,0.482 0.785,0.624 0.282,0.141 0.565,0.221 0.847,0.221 0.565,0 1.009,-0.201 1.31,-0.585 0.305,-0.382 0.465,-0.946 0.465,-1.693 l 0,-5.061 z m -6.614,-1.894 -1.834,0 0,1.007 c -0.323,-0.381 -0.686,-0.665 -1.048,-0.846 -0.362,-0.203 -0.706,-0.303 -1.05,-0.303 -0.422,0 -0.744,0.142 -0.967,0.424 -0.202,0.262 -0.302,0.665 -0.302,1.21 l 0,7.641 1.815,0 0,-7.017 c 0,-0.2 0.04,-0.363 0.121,-0.463 0.061,-0.102 0.201,-0.141 0.364,-0.141 0.139,0 0.302,0.06 0.504,0.201 0.221,0.122 0.403,0.283 0.563,0.485 l 0,6.935 1.834,0 0,-9.133 z m -6.006,10.565 -2.137,0 0,-10.565 -2.058,0 0,10.565 -2.116,0 0,1.792 6.311,0 0,-1.792 z m 20.887,4.011 -28.588,0 c -3.127,0 -5.706,-2.581 -5.706,-5.725 l 0,-5.829 c 0,-3.143 2.579,-5.705 5.706,-5.705 l 28.588,0 c 3.124,0 5.706,2.562 5.706,5.705 l 0,5.829 c 0,3.144 -2.582,5.725 -5.706,5.725 M 0,0 c -0.121,0.162 -0.322,0.242 -0.565,0.242 -0.121,0 -0.262,-0.02 -0.382,-0.08 C -1.069,0.101 -1.209,0 -1.33,-0.122 l 0,-5.684 c 0.141,-0.141 0.302,-0.263 0.444,-0.323 0.141,-0.06 0.281,-0.102 0.424,-0.102 0.242,0 0.401,0.061 0.501,0.203 0.101,0.12 0.163,0.323 0.163,0.625 l 0,4.716 C 0.202,-0.382 0.14,-0.162 0,0 m 0,0 c -0.121,0.162 -0.322,0.242 -0.565,0.242 -0.121,0 -0.262,-0.02 -0.382,-0.08 C -1.069,0.101 -1.209,0 -1.33,-0.122 l 0,-5.684 c 0.141,-0.141 0.302,-0.263 0.444,-0.323 0.141,-0.06 0.281,-0.102 0.424,-0.102 0.242,0 0.401,0.061 0.501,0.203 0.101,0.12 0.163,0.323 0.163,0.625 l 0,4.716 C 0.202,-0.382 0.14,-0.162 0,0 m 6.331,-0.041 c 0.121,-0.161 0.18,-0.442 0.18,-0.805 l 0,-0.927 -1.593,0 0,0.927 c 0,0.363 0.041,0.644 0.183,0.805 0.121,0.162 0.323,0.263 0.626,0.263 0.281,0 0.483,-0.101 0.604,-0.263 m -16.029,23.973 -1.43,-5.444 -0.162,0 -1.492,5.444 -2.337,0 2.762,-8.226 0,-5.383 2.317,0 0,5.645 2.682,7.964 -2.34,0 z m 6.371,-11.271 c 0,-0.262 -0.08,-0.463 -0.243,-0.625 -0.159,-0.162 -0.381,-0.241 -0.664,-0.241 -0.262,0 -0.482,0.079 -0.626,0.241 -0.138,0.141 -0.222,0.363 -0.222,0.625 l 0,5.485 c 0,0.22 0.084,0.401 0.243,0.522 0.142,0.143 0.363,0.202 0.605,0.202 0.262,0 0.485,-0.059 0.664,-0.202 0.163,-0.121 0.243,-0.302 0.243,-0.522 l 0,-5.485 z m 1.29,7.217 c -0.545,0.504 -1.25,0.747 -2.095,0.747 -0.929,0 -1.674,-0.243 -2.239,-0.707 -0.545,-0.462 -0.824,-1.066 -0.824,-1.854 l 0,-5.202 c 0,-0.867 0.279,-1.531 0.803,-2.036 0.545,-0.503 1.271,-0.765 2.158,-0.765 0.927,0 1.674,0.241 2.197,0.747 0.545,0.483 0.808,1.148 0.808,2.015 l 0,5.18 c 0,0.767 -0.283,1.392 -0.808,1.875 m 6.271,0.486 0,-7.623 C 4.052,12.521 3.833,12.339 3.609,12.198 3.367,12.056 3.187,11.977 3.025,11.977 c -0.18,0 -0.323,0.059 -0.403,0.16 C 2.52,12.259 2.48,12.418 2.48,12.661 l 0,7.703 -2.057,0 0,-8.387 c 0,-0.607 0.121,-1.049 0.364,-1.351 0.24,-0.303 0.606,-0.444 1.068,-0.444 0.404,0 0.787,0.101 1.209,0.301 0.403,0.222 0.788,0.524 1.17,0.948 l 0,-1.108 2.058,0 0,10.041 -2.058,0 z"
           id="path4309"
           style="fill:#ffffff;fill-opacity:1;fill-rule:nonzero;stroke:none" />
      </g>
    </g>
    <g
       transform="matrix(1.8423064,0,0,1.8423064,1178.9367,968.68741)"
       id="g7800">
      <g
         transform="matrix(1.25,0,0,-1.25,-148.7283,25.576485)"
         id="g4333">
        <path
           d="M 0,0 C 22.092,0 40,17.91 40,40.001 40,62.092 22.092,80 0,80 -22.095,80 -40,62.092 -40,40.001 -40,17.91 -22.095,0 0,0"
           id="path4335"
           style="fill:#333333;fill-opacity:1;fill-rule:nonzero;stroke:none" />
      </g>
      <g
         transform="matrix(1.25,0,0,-1.25,-126.78856,-36.420645)"
         id="g4337">
        <path
           d="m 0,0 c 0.088,-0.639 0.138,-1.321 0.138,-2.06 0,-2.027 -0.38,-4.308 -1.523,-7.163 l -6.107,-17.661 c 5.944,3.466 9.941,9.907 9.941,17.285 C 2.449,-6.119 1.561,-2.852 0,0 m -17.197,-11.349 -6.002,-17.438 c 1.79,-0.527 3.683,-0.813 5.651,-0.813 2.327,0 4.562,0.403 6.641,1.135 -0.053,0.087 -0.104,0.176 -0.143,0.274 l -6.147,16.842 z m 13.15,2.761 c 0,2.473 -0.89,4.186 -1.65,5.517 -1.013,1.647 -1.963,3.04 -1.963,4.69 0,1.839 1.391,3.55 3.359,3.55 0.085,0 0.171,-0.011 0.257,-0.017 -3.557,3.26 -8.298,5.252 -13.504,5.252 -6.991,0 -13.137,-3.587 -16.711,-9.016 0.47,-0.014 0.91,-0.026 1.286,-0.026 2.093,0 5.33,0.257 5.33,0.257 1.077,0.062 1.204,-1.518 0.126,-1.65 0,0 -1.082,-0.125 -2.288,-0.19 l 7.285,-21.662 4.377,13.126 -3.118,8.536 c -1.077,0.065 -2.097,0.19 -2.097,0.19 -1.078,0.066 -0.951,1.712 0.128,1.65 0,0 3.301,-0.257 5.267,-0.257 2.09,0 5.333,0.257 5.333,0.257 1.075,0.062 1.202,-1.518 0.124,-1.65 0,0 -1.081,-0.125 -2.288,-0.19 l 7.23,-21.497 1.996,6.663 c 1.011,2.602 1.521,4.753 1.521,6.467 m -33.504,-1.011 c 0,-7.913 4.601,-14.758 11.274,-17.997 l -9.541,26.139 c -1.111,-2.488 -1.733,-5.24 -1.733,-8.142"
           id="path4339"
           style="fill:#ffffff;fill-opacity:1;fill-rule:nonzero;stroke:none" />
      </g>
    </g>
    <g
       transform="matrix(1.8423064,0,0,1.8423064,715.73038,1150.2862)"
       id="g7776">
      <g
         transform="matrix(1.25,0,0,-1.25,-338.49693,-72.994943)"
         id="g4401">
        <path
           d="M 0,0 C 22.093,0 40,17.91 40,40 40,62.09 22.093,80 0,80 -22.095,80 -40,62.09 -40,40 -40,17.91 -22.095,0 0,0"
           id="path4403"
           style="fill:#336699;fill-opacity:1;fill-rule:nonzero;stroke:none" />
      </g>
      <g
         transform="matrix(1.25,0,0,-1.25,-318.36268,-107.65806)"
         id="g4405">
        <path
           d="m 0,0 c 0,-2.115 -1.719,-3.833 -3.834,-3.833 l -24.538,0 c -2.115,0 -3.833,1.718 -3.833,3.833 l 0,16.376 5.972,0 c -0.517,-1.27 -0.807,-2.655 -0.807,-4.106 0,-6.032 4.906,-10.938 10.937,-10.938 6.032,0 10.937,4.906 10.937,10.938 0,1.451 -0.291,2.836 -0.806,4.106 L 0,16.376 0,0 z m -21.811,16.376 c 1.28,1.773 3.359,2.936 5.708,2.936 2.35,0 4.428,-1.163 5.707,-2.936 0.836,-1.157 1.335,-2.572 1.335,-4.106 0,-3.882 -3.161,-7.04 -7.042,-7.04 -3.881,0 -7.04,3.158 -7.04,7.04 0,1.534 0.499,2.949 1.332,4.106 m 20.196,11.282 0.885,0.004 0,-0.882 0,-5.897 -6.76,-0.024 -0.023,6.781 5.898,0.018 z m -2.219,4.612 -24.538,0 c -4.263,0 -7.731,-3.468 -7.731,-7.731 l 0,-8.163 0,-16.376 c 0,-4.263 3.468,-7.73 7.731,-7.73 l 24.538,0 c 4.263,0 7.731,3.467 7.731,7.73 l 0,16.376 0,8.163 c 0,4.263 -3.468,7.731 -7.731,7.731"
           id="path4407"
           style="fill:#ffffff;fill-opacity:1;fill-rule:nonzero;stroke:none" />
      </g>
    </g>
    <g
       transform="matrix(1.8423064,0,0,1.8423064,663.05828,1128.1603)"
       id="g7782">
      <g
         transform="matrix(1.25,0,0,-1.25,-162.84127,-60.986337)"
         id="g4409">
        <path
           d="M 0,0 C 22.092,0 40,17.907 40,39.999 40,62.089 22.092,79.998 0,79.998 -22.09,79.998 -40,62.089 -40,39.999 -40,17.907 -22.09,0 0,0"
           id="path4411"
           style="fill:#cc3333;fill-opacity:1;fill-rule:nonzero;stroke:none" />
      </g>
      <g
         transform="matrix(1.25,0,0,-1.25,-162.84002,-136.11697)"
         id="g4413">
        <path
           d="m 0,0 c -11.045,0 -20.001,-8.953 -20.001,-20 0,-8.189 4.926,-15.225 11.974,-18.318 -0.057,1.396 -0.01,3.073 0.347,4.593 0.385,1.621 2.573,10.898 2.573,10.898 0,0 -0.639,1.277 -0.639,3.163 0,2.967 1.719,5.179 3.857,5.179 1.819,0 2.698,-1.367 2.698,-3.002 0,-1.83 -1.166,-4.566 -1.766,-7.097 -0.501,-2.122 1.064,-3.853 3.156,-3.853 3.79,0 6.341,4.866 6.341,10.632 0,4.383 -2.952,7.662 -8.32,7.662 -6.067,0 -9.847,-4.521 -9.847,-9.574 0,-1.744 0.514,-2.972 1.318,-3.924 0.37,-0.437 0.421,-0.612 0.288,-1.115 -0.095,-0.365 -0.316,-1.254 -0.408,-1.605 -0.133,-0.506 -0.543,-0.688 -1,-0.501 -2.795,1.143 -4.096,4.203 -4.096,7.641 0,5.68 4.79,12.496 14.292,12.496 7.637,0 12.662,-5.528 12.662,-11.459 0,-7.847 -4.362,-13.706 -10.792,-13.706 -2.158,0 -4.189,1.167 -4.884,2.493 0,0 -1.162,-4.608 -1.408,-5.499 -0.423,-1.539 -1.254,-3.083 -2.013,-4.281 1.798,-0.533 3.699,-0.822 5.668,-0.822 11.045,0 19.998,8.954 19.998,19.999 C 19.998,-8.953 11.045,0 0,0"
           id="path4415"
           style="fill:#ffffff;fill-opacity:1;fill-rule:nonzero;stroke:none" />
      </g>
    </g>
    <g
       transform="matrix(1.8423064,0,0,1.8423064,841.24637,576.01181)"
       id="g7794">
      <g
         transform="matrix(1.25,0,0,-1.25,-111.42857,107.00506)"
         id="g4489">
        <path
           d="M 0,0 C 22.093,0 40,17.91 40,40 40,62.09 22.093,80 0,80 -22.095,80 -40,62.09 -40,40 -40,17.91 -22.095,0 0,0"
           id="path4491"
           style="fill:#f83c0e;fill-opacity:1;fill-rule:nonzero;stroke:none" />
      </g>
      <g
         transform="matrix(1.25,0,0,-1.25,-109.62557,66.260427)"
         id="g4493">
        <path
           d="m 0,0 c 0.014,0 13.551,-0.005 13.638,-0.005 2.717,0 4.92,2.2 4.92,4.919 0,2.718 -2.203,4.92 -4.92,4.92 -0.675,0 -1.319,-0.138 -1.904,-0.381 -0.393,4.433 -4.109,7.91 -8.645,7.91 -1.11,0 -2.193,-0.217 -3.149,-0.588 -0.37,-0.142 -0.468,-0.29 -0.473,-0.579 l 0,-15.613 C -0.528,0.282 -0.294,0.031 0,0 m -1.539,16.21 c -0.294,0 -0.537,-0.241 -0.542,-0.54 L -2.302,4.588 -2.081,0.565 c 0.005,-0.292 0.248,-0.536 0.542,-0.536 0.294,0 0.538,0.244 0.542,0.54 l 0,-0.004 0.244,4.023 -0.244,11.085 c -0.004,0.296 -0.248,0.537 -0.542,0.537 M -3.218,0.004 c 0.274,0 0.503,0.227 0.508,0.506 l 0,-0.003 0.213,4.081 -0.213,10.164 c -0.005,0.277 -0.234,0.503 -0.508,0.503 -0.275,0 -0.503,-0.226 -0.508,-0.503 L -3.918,4.593 c 0,-0.009 0.192,-4.086 0.192,-4.086 0.005,-0.276 0.233,-0.503 0.508,-0.503 m -0.976,4.584 -0.237,8.545 c -0.006,0.261 -0.213,0.468 -0.475,0.468 -0.259,0 -0.468,-0.207 -0.473,-0.471 L -5.59,4.588 -5.379,0.479 c 0.005,-0.259 0.214,-0.465 0.473,-0.465 0.262,0 0.469,0.206 0.475,0.47 l 0,-0.005 0.237,4.109 z m -2.384,-4.57 c 0.239,0 0.432,0.195 0.436,0.439 l 0,-0.003 0.262,4.137 -0.262,8.863 c -0.004,0.243 -0.197,0.437 -0.436,0.437 -0.243,0 -0.437,-0.194 -0.441,-0.437 L -7.251,4.591 -7.019,0.454 C -7.015,0.213 -6.821,0.018 -6.578,0.018 M -8.241,0.016 c 0.22,0 0.397,0.176 0.404,0.402 l 0,-0.003 0.285,4.176 -0.285,9.094 c -0.007,0.228 -0.184,0.403 -0.404,0.403 -0.22,0 -0.4,-0.175 -0.404,-0.403 L -8.897,4.593 -8.645,0.415 C -8.641,0.192 -8.461,0.016 -8.241,0.016 M -9.89,13.757 c -0.202,0 -0.363,-0.161 -0.372,-0.367 l -0.271,-8.797 0.271,-4.202 c 0.009,-0.206 0.17,-0.366 0.372,-0.366 0.2,0 0.363,0.16 0.372,0.368 l 0,-0.002 0.308,4.202 -0.308,8.797 c -0.009,0.206 -0.172,0.367 -0.372,0.367 M -11.525,0.016 c 0.179,0 0.326,0.146 0.336,0.333 l 0,-0.002 0.33,4.246 -0.33,8.122 c -0.01,0.185 -0.157,0.33 -0.336,0.33 -0.181,0 -0.33,-0.145 -0.337,-0.33 l -0.292,-8.122 0.292,-4.244 c 0.007,-0.187 0.156,-0.333 0.337,-0.333 m -0.964,4.577 -0.357,6.61 c -0.008,0.168 -0.142,0.299 -0.302,0.299 -0.162,0 -0.294,-0.131 -0.302,-0.299 l -0.312,-6.61 0.312,-4.272 c 0.008,-0.165 0.14,-0.298 0.302,-0.298 0.16,0 0.294,0.133 0.302,0.3 l 0,-0.002 0.357,4.272 z m -2.27,-4.533 c 0.143,0 0.257,0.114 0.269,0.263 l 0.379,4.273 -0.379,4.062 c -0.012,0.152 -0.126,0.264 -0.269,0.264 -0.142,0 -0.26,-0.114 -0.268,-0.264 l -0.333,-4.062 0.333,-4.273 c 0.008,-0.149 0.126,-0.263 0.268,-0.263 m -1.596,0.068 c 0.122,0 0.223,0.099 0.234,0.229 l 0.399,4.239 -0.399,4.38 c -0.011,0.132 -0.112,0.229 -0.234,0.229 -0.124,0 -0.225,-0.097 -0.237,-0.229 l -0.351,-4.38 0.351,-4.239 c 0.012,-0.13 0.113,-0.229 0.237,-0.229 m -1.385,8.73 c -0.012,0.113 -0.097,0.198 -0.199,0.198 -0.107,0 -0.192,-0.085 -0.201,-0.198 0,-0.003 -0.374,-4.262 -0.374,-4.262 l 0.374,-4.108 c 0.009,-0.112 0.094,-0.195 0.201,-0.195 0.102,0 0.187,0.083 0.199,0.193 l 0.425,4.11 -0.425,4.262 z m -3.25,-6.603 c 0.081,0 0.147,0.064 0.159,0.156 l 0.349,2.187 -0.349,2.22 c -0.012,0.092 -0.078,0.157 -0.159,0.157 -0.085,0 -0.15,-0.067 -0.16,-0.159 l -0.292,-2.218 0.292,-2.187 c 0.01,-0.09 0.075,-0.156 0.16,-0.156 m 0.159,0.156 z m 1.318,-1.488 c 0.087,0 0.156,0.064 0.167,0.161 l 0.449,3.514 -0.446,3.592 c -0.014,0.094 -0.083,0.161 -0.17,0.161 -0.083,0 -0.152,-0.07 -0.166,-0.161 l -0.392,-3.592 0.392,-3.514 c 0.014,-0.095 0.083,-0.161 0.166,-0.161"
           id="path4495"
           style="fill:#ffffff;fill-opacity:1;fill-rule:nonzero;stroke:none" />
      </g>
    </g>
    <g
       transform="matrix(1.8423064,0,0,1.8423064,1089.2777,816.03919)"
       id="g7788">
      <g
         transform="matrix(1.25,0,0,-1.25,-247.12573,108.43363)"
         id="g4497">
        <path
           d="M 0,0 C 22.092,0 40,17.91 40,40 40,62.09 22.092,80 0,80 -22.091,80 -40.002,62.09 -40.002,40 -40.002,17.91 -22.091,0 0,0"
           id="path4499"
           style="fill:#c20907;fill-opacity:1;fill-rule:nonzero;stroke:none" />
      </g>
      <g
         transform="matrix(1.25,0,0,-1.25,-223.03398,54.781233)"
         id="g4501">
        <path
           d="m 0,0 -4.823,0 0,4.822 -3.882,0 0,-4.822 -4.822,0 0,-3.882 4.822,0 0,-4.823 3.882,0 0,4.823 4.823,0 L 0,0 z m -18.025,-5.841 c -1.12,0.792 -3.259,2.72 -3.259,3.852 0,1.332 0.379,1.984 2.377,3.546 2.049,1.601 3.499,3.851 3.499,6.467 0,3.117 -1.388,6.154 -3.993,7.158 l 3.928,0 2.772,2.002 -12.389,0 c -5.552,0 -10.78,-4.207 -10.78,-9.081 0,-4.98 3.787,-9 9.437,-9 0.393,0 0.774,0.008 1.148,0.033 -0.366,-0.698 -0.63,-1.493 -0.63,-2.311 0,-1.385 0.745,-2.508 1.686,-3.424 -0.711,0 -1.399,-0.02 -2.146,-0.02 -6.879,0 -12.175,-4.381 -12.175,-8.926 0,-4.474 5.805,-7.271 12.683,-7.271 7.842,0 12.175,4.449 12.175,8.925 0,3.587 -1.059,5.737 -4.333,8.05 m -6.617,6.208 c -3.19,0.094 -6.225,3.569 -6.775,7.758 -0.551,4.194 1.59,7.4 4.78,7.307 3.191,-0.097 6.226,-3.457 6.776,-7.651 0.55,-4.189 -1.59,-7.51 -4.781,-7.414 m -1.249,-21.203 c -4.757,0 -8.19,3.008 -8.19,6.623 0,3.544 4.26,6.495 9.016,6.442 1.109,-0.01 2.144,-0.19 3.082,-0.493 2.579,-1.797 4.431,-2.809 4.954,-4.855 0.098,-0.416 0.153,-0.841 0.153,-1.278 0,-3.617 -2.33,-6.439 -9.015,-6.439"
           id="path4503"
           style="fill:#ffffff;fill-opacity:1;fill-rule:nonzero;stroke:none" />
      </g>
    </g>
  </g>
</svg>
